# xmcd
#
# Track frame offsets: 
#        150
#        41491
#        60883
#        91148
#
# Disc length: 1557 seconds
#
# Revision: 0
# Processed by: cddbd v1.5.2PL0 Copyright (c) Steve Scherf et al.
# Submitted via: ExactAudioCopy v0.95b4
#
DISCID=22061304
DTITLE=Nova - Memories
DYEAR=1900
DGENRE=
TTITLE0=extended mix
TTITLE1=video mix
TTITLE2=yanou mix
TTITLE3=schlönz mix
EXTD=
EXTT0=
EXTT1=
EXTT2=
EXTT3=
PLAYORDER=
